<svg viewBox="0 0 369.65517241379314 47.366167759282035" preserveAspectRatio="xMidYMid meet" class="css-grg60t" id="bhfageaa"><defs id="SvgjsDefs1011"/><g id="SvgjsG1012" featurekey="symbolFeature-0" transform="matrix(1.0681768324610676,0,0,1.0681768324610676,-4.13524695938125,-9.76313661542357)" fill="#000000"><g xmlns="http://www.w3.org/2000/svg"><path fill="#000000" d="M44.868,25.026c-2.097,0-3.795,1.7-3.795,3.796   c0,2.096,1.698,3.796,3.795,3.796c2.095,0,3.796-1.7,3.796-3.796C48.664,26.726,46.963,25.026,44.868,25.026z M19.813,25.026   c-2.098,0-3.796,1.7-3.796,3.796c0,2.096,1.699,3.796,3.796,3.796c2.096,0,3.795-1.7,3.795-3.796   C23.608,26.726,21.909,25.026,19.813,25.026z M9.242,20.24c-0.741-0.744-1.11-1.718-1.11-2.686c0-0.973,0.369-1.946,1.11-2.687   c0.745-0.74,1.714-1.109,2.686-1.109c0.973,0,1.946,0.369,2.686,1.109l-0.887,0.655c5.137-3.995,11.597-6.382,18.613-6.382   c7.018,0,13.469,2.386,18.613,6.382l-0.884-0.652c0.741-0.741,1.711-1.11,2.686-1.11c0.97,0,1.944,0.369,2.683,1.11   c0.738,0.745,1.107,1.718,1.107,2.686c0,0.974-0.366,1.946-1.107,2.687l0.886,0.651c12.835,12.834-9.011,18.613-9.011,18.613   H17.368c-0.63,0-22.741-4.884-9.011-18.613L9.242,20.24z"/></g><path xmlns="http://www.w3.org/2000/svg" fill="#000000" d="M52.358,53.063c-2.55,0-4.617-2.067-4.617-4.618l0,0c0-2.55,2.067-4.617,4.617-4.617l0,0  c2.55,0,4.617,2.067,4.617,4.617l0,0C56.976,50.996,54.908,53.063,52.358,53.063L52.358,53.063z"/><path xmlns="http://www.w3.org/2000/svg" fill="#000000" d="M14.422,53.483c-2.551,0-4.618-2.067-4.618-4.618l0,0c0-2.55,2.067-4.617,4.618-4.617l0,0  c2.551,0,4.618,2.067,4.618,4.617l0,0C19.04,51.416,16.973,53.483,14.422,53.483L14.422,53.483z"/><path xmlns="http://www.w3.org/2000/svg" fill="#000000" d="M18.526,40.461h27.726C46.252,40.461,32.81,45.081,18.526,40.461z"/></g><g id="SvgjsG1013" featurekey="nameFeature-0" transform="matrix(1.2684148289917796,0,0,1.2684148289917796,79.64484448899927,-9.119504858354384)" fill="#000000"><path d="M9.08 40 l0 -1.08 c1.36 -1.4 2.08 -3.28 2.08 -5.24 l0 -19.76 l-3.68 0 c-1.88 0 -3.72 0.72 -4.96 2.12 l-2.24 0 l0 -4.04 l26.12 0 l0 4.04 l-2.16 0 c-1.28 -1.4 -3.2 -2.12 -5.04 -2.12 l-3.6 0 l0 19.76 c0 1.96 0.64 3.84 2 5.24 l0 1.08 l-8.52 0 z M27.72 40 l0 -1.08 c1.36 -1.4 2.12 -3.32 2.12 -5.24 l0 -15.32 c0 -1.92 -0.76 -3.8 -2.12 -5.2 l0 -1.16 l6.48 0 l0 10.16 c1.44 -1.04 3.16 -1.6 4.8 -1.6 c4.72 0 9.24 2.84 9.24 9.76 l0 3.36 c0 1.92 0.68 3.84 2.04 5.24 l0 1.08 l-8.44 0 l0 -1.08 c1.32 -1.4 2.04 -3.32 2.04 -5.2 l0 -2.6 c0 -3.68 -2.52 -10 -7.6 -8.84 c-1.24 0.28 -2.08 1.68 -2.08 2.96 l0 8.48 c0 1.88 0.68 3.8 2.04 5.2 l0 1.08 l-8.52 0 z M68.91999999999999 33.88 l2.96 0 c-1.4 3.8 -5.08 6.52 -9.52 6.52 c-5.64 0 -10.12 -4.52 -10.12 -9.96 c0 -5.56 4.48 -10.08 10.12 -10.08 c5.56 0 10.08 4.4 10.16 9.88 l-16.24 0 c0.16 0.48 0.24 1 0.4 1.56 c1.28 4.4 4.32 7.56 7.4 7.56 c2.88 0 4.44 -2.72 4.84 -5.48 z M56.08 28.6 l12.28 0 c-1.36 -4.16 -4.56 -6.8 -7.56 -6.8 c-3.04 0 -4.76 2.92 -4.76 5.92 c0 0.28 0 0.6 0.04 0.88 z M88.15999999999998 40 l0 -1.08 l1.52 -1.68 c0.36 -0.4 0.6 -0.84 0.6 -1.36 l0 -19.72 c0 -0.56 -0.24 -1.04 -0.6 -1.4 l-1.52 -1.64 l0 -1.12 l8.52 0 l0 1.12 l-1.52 1.64 c-0.36 0.36 -0.56 0.84 -0.56 1.4 l0 8.72 l12.8 -10.08 c0.64 -0.48 0.84 -1.28 0.68 -2.08 l0 -0.72 l6.08 0 l0 0.68 l-1.4 0.56 c-1.12 0.48 -2.28 1.08 -3.28 1.88 l-11.12 8.88 l3.52 0 l9.28 11.68 c0.6 0.76 1.24 1.4 2.08 2 l1.68 1.24 l0 1.08 l-8.48 0 l0 -1.08 c1 -0.68 1.28 -2.08 0.52 -3 l-9.12 -11.48 l-3.24 2.56 l0 8.88 c0 0.52 0.2 0.96 0.56 1.4 l1.52 1.64 l0 1.08 l-8.52 0 z M145.35999999999999 40.2 l-1.12 -0.24 c-0.84 -0.16 -1.68 -0.4 -2.56 -0.36 c-1.6 0 -3.2 0.6 -4.8 0.6 c-3.88 0 -7.04 -3.28 -7.04 -7.12 c0 -3.8 3.16 -6.92 7.04 -6.92 c1.52 0 2.88 0.44 4.12 1.2 l0 -0.04 c0 -1.32 0.04 -5.56 -2.88 -5.56 c-1.6 0 -2.36 1.12 -3.68 3.2 l-3.48 0 c1.12 -2.64 3.16 -4.48 6 -4.48 c3.64 0 8.4 2.28 8.4 6.84 l0 12.88 z M116.55999999999999 40 l0 -1.12 c1.28 -1.4 2 -3.28 2 -5.12 l0 -6.72 c0 -1.88 -0.72 -3.76 -2 -5.16 l0 -1.2 l6.44 0 l0 1.96 c0.96 -1.08 3.24 -2.16 5.08 -2.16 c2.12 0 3.84 0.88 3.84 0.88 c-1 1 -1.68 2.08 -2.24 3.36 c0 0 -1.4 -1.4 -3.48 -1.4 c-2.8 0 -3.2 1.92 -3.2 2.44 l0 8 c0 1.84 0.72 3.72 2.04 5.12 l0 1.12 l-8.48 0 z M137.88 38.92 c2.16 0 3.48 -2.32 3.48 -4.6 c0 -3.76 -2.88 -6.84 -5.44 -6.84 c-2.04 0 -3.24 1.84 -3.24 4.16 c0 3.72 2.68 7.28 5.2 7.28 z M148.76 40 l0 -1.12 c1.36 -1.36 2.04 -3.2 2.04 -5.24 l0 -9.2 l-1.84 0 l0 -1.64 l1.84 0 l0 -4.08 c0 -4.76 5.16 -6.32 5.16 -6.32 c0.88 -0.36 2.08 -0.48 3.16 -0.48 c2.16 0 4.04 1.36 4.92 3.32 l0.52 1.16 l-2.32 0 c-1.32 -2.08 -2.52 -3.4 -4.12 -3.52 c-1 -0.08 -1.88 0.48 -2.24 1.32 c-0.36 0.88 -0.68 2.24 -0.68 4.52 l0 4.08 l4.64 0 l0 1.64 l-4.64 0 l0 9.16 c0 2.04 0.72 3.92 2.08 5.28 l0 1.12 l-8.52 0 z M164.08 32.96 l0 -10.64 l-2.96 0 l0 -1.64 l2.96 0 l0 -6.64 l4.36 -2.08 l0 8.72 l2.88 0 l0 1.64 l-2.88 0 l0 10.4 c0 1.56 0.6 2.92 1.36 3.92 c0.44 0.6 0.96 1.04 1.52 1.36 l0 2.2 c-0.92 -0.04 -1.88 -0.24 -2.88 -0.64 c-2.32 -0.96 -4.36 -2.92 -4.36 -6.6 z M173.8 30.439999999999998 c0 -6.04 4.88 -9.92 10.44 -9.92 c5.64 0 10.64 3.76 10.64 9.92 c0 6.2 -5 9.92 -10.64 9.92 c-5.56 0 -10.44 -3.84 -10.44 -9.92 z M178.92 31.759999999999998 c1.36 4.64 4.68 7.88 7.92 7.12 c3.16 -0.76 4.64 -5.08 3.2 -9.76 c-1.36 -4.56 -5 -7.72 -8.28 -7 c-3.16 0.72 -4.24 4.96 -2.84 9.64 z M197.48000000000002 40 l0 -1 c1.36 -1.48 2.04 -3.32 2.04 -5.32 l0 -6.6 c0 -1.96 -0.68 -3.84 -2.04 -5.24 l0 -1.16 l6.44 0 l0 2.08 c1.24 -1.24 3.6 -2.2 5.24 -2.2 c1.72 0 2.92 0.64 2.92 0.64 l-0.84 3.64 s-1.8 -1.48 -4 -1.48 c-2.92 0 -3.32 1.96 -3.32 2.48 l0 7.84 c0 2 0.76 3.84 2.04 5.32 l0 1 l-8.48 0 z M214.24 38.36 l0 -2.84 l1.32 0 l1.56 1.68 c1.04 1.12 2.28 1.56 4.04 1.52 c1.6 0 4.04 -0.6 4.04 -2.08 c0 -1.88 -3.64 -4.16 -5.8 -5.44 c-1.88 -1.08 -5.16 -2.96 -5.16 -5.24 c0 -4.36 5.08 -5.44 6.56 -5.44 c1.88 0 3.76 0.44 5.76 1.36 l0 2.76 l-1.44 0 l-1.16 -1.32 c-0.84 -0.96 -2.04 -1.6 -3.36 -1.56 c-1.2 0 -3.44 0.92 -3.44 2.32 c0 1.64 3.88 2.88 7.92 5.64 c2.44 1.64 3.56 3.68 3.56 5.52 c0 2.64 -2.24 4.88 -6.08 4.88 c-5 0 -8.32 -1.76 -8.32 -1.76 z"/></g></svg>